<?xml version="1.0" encoding="UTF-8"?>
<svg width="1024px" height="768px" viewBox="0 0 1024 768" version="1.1" xmlns="http://www.w3.org/2000/svg" xmlns:xlink="http://www.w3.org/1999/xlink">
    <!-- Generator: Sketch 51.3 (57544) - http://www.bohemiancoding.com/sketch -->
    <title>-01_pepper-tablet-splash</title>
    <desc>Created with Sketch.</desc>
    <defs>
        <rect id="path-1" x="0" y="0" width="459" height="459"></rect>
    </defs>
    <g id="-01_pepper-tablet-splash" stroke="none" stroke-width="1" fill="none" fill-rule="evenodd">
        <rect fill="#FFFFFF" x="0" y="0" width="1024" height="768"></rect>
        <rect id="Path" fill="#0B24BE" fill-rule="nonzero" opacity="0.565513393" x="0" y="0" width="1024" height="772"></rect>
        <g id="pepper" transform="translate(533.000000, 303.000000)">
            <g id="Badge-Copy-3">
                <mask id="mask-2" fill="white">
                    <use xlink:href="#path-1"></use>
                </mask>
                <g id="Rectangle" fill-rule="nonzero"></g>
                <circle id="Oval" fill="#0B24BE" fill-rule="nonzero" mask="url(#mask-2)" cx="235.926" cy="505.818" r="226.746"></circle>
                <g id="Group-2" mask="url(#mask-2)">
                    <g transform="translate(64.260000, 99.144000)">
                        <path d="M151.671421,407.853484 L10.3838145,364.482136 C10.3838145,364.482136 6.42182523,341.623263 12.0263387,331.123049 C17.6308521,320.619692 25.9040746,314.362928 34.6980208,312.129202 C39.793482,310.835024 41.0319964,311.164517 43.7433509,308.653821 C56.384368,296.950555 69.1986604,290.378663 84.3131152,286.436425 C105.864344,280.814853 187.818625,282.697988 205.557797,283.059352 C235.407386,283.666265 262.072929,294.320451 279.158952,302.863463 C305.719453,316.144611 286.27536,309.32717 295.432466,312.72175 C305.208605,316.344371 321.874008,329.506561 331.074209,338.130374 C340.27396,346.754187 354.731675,359.379493 365.902994,394.207829" id="Fill-294" fill="#FFFFFE" fill-rule="evenodd"></path>
                        <path d="M106.527332,283.320395 C107.157914,283.430551 107.579802,284.031037 107.469646,284.661618 C107.35949,285.2922 106.759004,285.714088 106.128423,285.603933 C105.710406,285.546228 105.464106,285.519209 105.174554,285.493758 C99.0963347,284.95949 89.9260447,285.895648 77.7437289,289.518519 C69.2740114,292.037249 61.3423324,296.079315 54.2620892,301.098147 C48.997626,304.829863 44.516857,308.924072 42.1674477,311.79982 C35.4968156,319.96761 27.2155808,337.504784 26.3233206,346.864209 C25.7156428,353.237059 25.818789,359.207678 26.3573675,364.405414 C26.4538992,365.337027 26.5571405,366.16139 26.6601052,366.869184 C26.6958915,367.115184 26.72899,367.328568 26.7585262,367.508172 C26.9084749,368.344399 26.4910206,368.947976 25.8612675,369.062773 C25.2315145,369.17757 24.6279373,368.760116 24.5131402,368.130363 C24.4392916,367.690723 24.4039987,367.46319 24.3661327,367.202894 C24.2586624,366.464128 24.1514686,365.608205 24.0515943,364.644334 C23.4981029,359.302676 23.3923484,353.181071 24.0156672,346.64419 C24.955985,336.780661 33.4318519,318.831315 40.3721401,310.333347 C42.8592086,307.2891 47.4934455,303.054663 52.9215258,299.206967 C60.1984301,294.048732 68.3548231,289.892149 77.0829567,287.296571 C89.5443388,283.590709 99.0076464,282.624638 105.377531,283.184543 C105.935307,283.233571 106.318969,283.283996 106.527332,283.320395 Z" id="Stroke-296" fill="#000000" fill-rule="nonzero"></path>
                        <path d="M84.3825291,331.273393 C78.1868946,344.902604 72.6579268,369.995991 72.6579268,383.037587 C72.6579268,383.677718 72.1389984,384.196647 71.4988677,384.196647 C70.858737,384.196647 70.3398085,383.677718 70.3398085,383.037587 C70.3398085,369.662209 75.9407742,344.242056 82.2721908,330.314151 C89.4504055,314.520608 105.021883,296.18642 114.999136,292.97187 L204.351075,281.991022 C204.720366,281.996907 204.874155,282.000979 205.052002,282.006794 C205.556221,282.023282 206.153977,282.050368 206.843472,282.090468 C208.805789,282.204592 211.113488,282.399768 213.752186,282.695326 C221.276671,283.538138 229.952484,285.014459 239.664398,287.278922 C250.290066,289.755596 259.879606,293.448017 270.906173,298.859356 C272.94137,299.858138 274.973424,300.886783 277.520797,302.199867 C277.92703,302.409267 282.39907,304.724669 283.658414,305.369797 C288.410039,307.803924 291.642769,309.339025 294.701322,310.55391 C295.29624,310.790217 295.586951,311.464057 295.350645,312.058974 C295.114338,312.653891 294.440498,312.944603 293.845581,312.708296 C290.702521,311.459844 287.413665,309.898091 282.601513,307.432958 C281.336829,306.785095 276.860968,304.467714 276.458688,304.260352 C273.923722,302.953663 271.904314,301.931419 269.8849,300.940383 C259.003581,295.600325 249.570392,291.968106 239.138102,289.536505 C229.515932,287.292968 220.929669,285.831885 213.494149,284.999038 C210.896845,284.708116 208.630301,284.516421 206.708882,284.404675 C206.039069,284.365721 205.460923,284.339523 204.976241,284.323674 C204.67178,284.315507 174.882284,287.944874 115.607754,295.211774 C106.380863,298.279811 91.2913276,316.07262 84.3825291,331.273393 Z" id="Stroke-298" fill="#000000" fill-rule="nonzero"></path>
                        <path d="M149.699898,406.692674 C149.699898,406.692674 167.602919,379.18724 185.514917,361.680149 C201.286561,346.263136 209.500977,339.473527 233.158443,325.554043 C256.815909,311.630969 284.614924,310.070593 294.701702,312.71147 C304.788031,315.348756 321.874053,329.506606 331.073805,338.130419 C340.274005,346.754232 354.73172,359.379538 365.903039,394.207425" id="Fill-300" fill="#FFFFFE" fill-rule="evenodd"></path>
                        <path d="M149.067617,407.664085 C148.531122,407.314885 148.379289,406.596888 148.728488,406.060393 C148.934866,405.745519 149.044723,405.578928 149.171243,405.387946 C149.532092,404.843248 149.954426,404.21183 150.434807,403.500906 C151.806265,401.471263 153.368561,399.210308 155.094208,396.775744 C160.02501,389.819309 165.278444,382.862488 170.635883,376.365899 C175.498389,370.46948 180.215149,365.239377 184.704709,360.851305 C201.686236,344.251613 210.161333,337.740188 232.57056,324.555138 C243.557262,318.08916 256.16109,313.820099 268.83461,311.77699 C279.369509,310.078649 289.28691,310.095666 294.994906,311.59011 C303.762145,313.882492 318.694374,324.937309 331.866466,337.284779 C337.776133,342.82421 338.787707,343.804349 341.668339,346.977963 C345.777635,351.505209 349.500064,356.432873 353.02971,362.234654 C358.317388,370.926163 362.978868,381.296142 367.006712,393.853414 C367.202227,394.462955 366.866592,395.115583 366.257051,395.311098 C365.647509,395.506614 364.994881,395.170979 364.799366,394.561437 C360.825969,382.17391 356.239463,371.970718 351.049293,363.439486 C347.598395,357.767146 343.964697,352.956942 339.951866,348.535974 C337.1301,345.42721 336.139457,344.467352 330.281123,338.97604 C317.398801,326.900199 302.663718,315.991334 294.408137,313.832736 C289.053656,312.430849 279.446016,312.414363 269.203552,314.06556 C256.801445,316.064915 244.470214,320.241644 233.746214,326.553015 C211.499862,339.642233 203.173849,346.039117 186.325073,362.509043 C181.900695,366.833406 177.237736,372.003854 172.424321,377.840742 C167.106329,384.289496 161.885845,391.202684 156.985423,398.116259 C155.270142,400.536198 153.717628,402.782996 152.35554,404.798772 C151.87918,405.503746 151.46077,406.129296 151.103765,406.668193 C150.979037,406.85647 150.870952,407.020374 150.779943,407.159003 C150.322109,407.861451 149.604112,408.013284 149.067617,407.664085 Z" id="Stroke-302" fill="#000000" fill-rule="nonzero"></path>
                        <path d="M42.5109287,309.331096 C43.1497837,309.290703 43.7004233,309.775852 43.7408166,310.414707 C43.7812099,311.053562 43.2960608,311.604201 42.6572058,311.644595 C34.4833932,312.161406 27.5395033,315.209578 22.0473032,320.250975 C17.3266922,324.584115 13.8787651,330.254522 12.1516187,336.051788 C11.4055641,338.556778 10.9080835,341.503295 10.6347909,344.798597 C10.2362717,349.603854 10.3314407,354.761424 10.7321242,359.705962 C10.808437,360.647683 10.8901389,361.501557 10.971731,362.251522 C11.0001865,362.513075 11.0265544,362.742667 11.0501465,362.938293 C11.0641283,363.05423 11.0739593,363.132212 11.078951,363.170236 C11.1622721,363.804921 10.7153035,364.38698 10.0806186,364.470301 C9.44593367,364.553622 8.86387481,364.106653 8.78055372,363.471968 C8.7745173,363.425987 8.7636706,363.339949 8.74870354,363.215841 C8.72404748,363.011392 8.6966532,362.772864 8.66721099,362.502241 C8.58338107,361.731706 8.49966092,360.856739 8.42157985,359.893199 C8.01151809,354.83293 7.91414969,349.556168 8.32460373,344.607004 C8.61016862,341.163726 9.13342986,338.064513 9.92996934,335.390012 C11.7739699,329.200518 15.4429255,323.166612 20.4797314,318.54323 C26.3562092,313.149098 33.7989756,309.881933 42.5109287,309.331096 Z" id="Stroke-304" fill="#000000" fill-rule="nonzero"></path>
                        <path d="M333.857658,339.829283 L333.547554,342.126566 C314.765609,339.591241 300.659616,341.606383 285.513616,347.826082 C279.735621,350.199011 272.749011,354.675042 265.233926,360.523857 C259.789442,364.761172 254.343609,369.534715 251.133713,372.690686 C248.54939,375.233335 244.285328,375.76305 241.363933,374.133385 C237.988145,372.250242 237.701679,368.380443 241.150082,364.361769 C248.854909,355.383902 267.488763,341.873288 281.338193,336.047996 C288.339928,333.104714 296.575315,331.38036 305.252509,330.756543 C312.175674,330.258826 319.048736,330.516766 323.706801,331.291563 L323.326443,333.578264 C318.856339,332.834731 312.165762,332.58364 305.418733,333.068694 C296.975902,333.675662 288.981813,335.349493 282.236734,338.184886 C268.71727,343.871389 250.378475,357.168068 242.909255,365.8714 C240.348375,368.855779 240.50718,371.00105 242.49324,372.10895 C244.52418,373.241885 247.664728,372.851741 249.508217,371.037981 C252.781784,367.819408 258.294842,362.986939 263.81017,358.694488 C271.476971,352.727595 278.620733,348.150884 284.633007,345.681741 C300.14573,339.311447 314.660493,337.237909 333.857658,339.829283 Z" id="Stroke-306" fill="#000000" fill-rule="nonzero"></path>
                        <path d="M96.28018,283.664248 L97.3181642,285.736991 C89.6612959,289.571383 83.6898059,294.210865 78.885675,299.664098 C75.323582,303.707476 72.9440844,307.384859 69.7125641,313.269134 C68.3335541,315.779376 67.2813393,318.138543 66.3662482,320.638331 C65.8524244,322.041963 64.5512135,326.05323 64.5057891,326.184541 C62.8309422,331.026113 60.8514605,332.86136 55.5554476,333.583207 C52.5063474,333.999937 50.9086551,332.187557 50.9682516,329.045743 C51.0126452,326.705399 51.9141892,323.488761 53.5038591,319.594568 C56.003594,313.471002 60.4219567,305.456711 62.6923231,302.488818 C66.7681072,297.160825 74.3425028,289.876157 80.0631566,286.123231 L81.3347104,288.061484 C75.8443494,291.66333 68.4576995,298.767435 64.5334989,303.897272 C62.3965829,306.690715 58.0763094,314.527086 55.6500443,320.470674 C54.1600266,324.12075 53.3235995,327.105057 53.285953,329.089707 C53.2511375,330.925116 53.749435,331.490372 55.2419619,331.286383 C59.6131759,330.690587 60.910047,329.488212 62.3150482,325.426697 C62.3473896,325.333206 63.6575962,321.294208 64.1894005,319.841458 C65.1430383,317.23637 66.242586,314.771079 67.6807626,312.153134 C70.9873408,306.132186 73.4472333,302.330558 77.1462688,298.131734 C82.1452338,292.457343 88.3540198,287.633496 96.28018,283.664248 Z" id="Stroke-308" fill="#000000" fill-rule="nonzero"></path>
                        <path d="M202.929264,274.933548 C202.929264,274.933548 204.900832,311.406653 204.900832,314.6926 C204.900832,317.978995 189.457783,331.779071 177.628825,338.350963 C165.800317,344.923305 147.105886,346.750327 134.257029,343.608028 C123.023312,340.858517 116.513817,330.5024 116.513817,320.605507 L116.513817,288.407723" id="Fill-310" fill="#FFFFFE" fill-rule="evenodd"></path>
                        <path d="M201.771895,274.99611 L204.086634,274.870986 C204.090489,274.942312 204.090489,274.942312 204.108786,275.281585 C204.12684,275.616579 204.147782,276.005803 204.171371,276.445007 C204.238768,277.699837 204.313866,279.103563 204.394741,280.622175 C204.625813,284.961092 204.856886,289.351373 205.07256,293.520971 C205.096089,293.975849 205.11933,294.426113 205.142272,294.871534 C205.720219,306.092598 206.059891,313.281616 206.059891,314.6926 C206.059891,316.786077 202.38513,320.969482 196.464889,326.161164 C190.660767,331.251017 183.839186,336.22656 178.191776,339.364129 C166.447774,345.889516 147.534126,348.048273 133.981476,344.733857 C122.831402,342.004817 115.354758,331.720989 115.354758,320.605507 L115.354758,288.407723 L117.672876,288.407723 L117.672876,320.605507 C117.672876,330.686375 124.455656,340.01582 134.532372,342.482149 C147.532729,345.661498 165.847573,343.571086 177.06592,337.337772 C182.556653,334.28725 189.248182,329.406564 194.936486,324.418276 C197.587767,322.093268 199.846402,319.891888 201.432222,318.086566 C202.923184,316.389232 203.741773,315.094009 203.741773,314.6926 C203.741773,313.345546 203.399659,306.104847 202.827222,294.990772 C202.804289,294.545522 202.781057,294.095428 202.757536,293.640717 C202.54193,289.472423 202.310917,285.083277 202.079903,280.745453 C201.999047,279.227205 201.923968,277.823826 201.856589,276.569333 C201.833007,276.130273 201.812073,275.74119 201.794026,275.406336 C201.775741,275.067257 201.775741,275.067257 201.771895,274.99611 Z" id="Stroke-312" fill="#000000" fill-rule="nonzero"></path>
                        <path d="M271.273085,73.5178392 C259.710774,59.3846793 242.358554,26.2047028 206.87213,10.4299165 C171.385707,-5.34127863 112.242266,-0.0527906112 82.0133569,20.9440466 C51.7839984,41.944026 38.6411114,68.9480397 34.6984248,74.517539 C30.7552894,80.0901805 26.5127378,93.4166676 13.9978615,101.117992 C-3.08816098,111.632122 -1.29929545,167.506226 10.7123642,184.24884 C21.5550889,199.364192 29.4409109,216.776565 40.6126791,227.94968 C48.6071349,235.94234 79.0560053,271.650969 101.399093,282.165099 C123.74218,292.679229 141.156797,297.213565 174.014464,287.748065 C206.87213,278.282565 225.533342,257.275852 239.729797,241.750205 C260.758506,218.747235 276.446206,212.701453 283.102042,210.204224 C293.616173,206.262435 305.44513,189.838988 308.073438,168.148152 C310.702195,146.456867 313.532059,126.091632 309.224417,110.317294 C303.762205,90.3201571 283.102042,87.973758 271.273085,73.5178392" id="Fill-314" fill="#FFFFFE" fill-rule="evenodd"></path>
                        <path d="M287.322346,85.0483833 C287.584071,85.2146186 287.850363,85.3834244 288.211334,85.6120087 C288.878476,86.0344235 288.969424,86.092024 289.100838,86.1752954 C295.493768,90.2262259 298.625448,92.4674664 301.794336,95.5806692 C305.94753,99.660881 308.777456,104.282208 310.342535,110.01196 C312.326726,117.27795 312.931801,125.761416 312.44684,136.265417 C312.085289,144.096416 311.503383,149.579823 309.440402,166.508138 C309.360427,167.164391 309.290641,167.738355 309.224081,168.287577 C306.72632,188.901039 295.456177,206.810447 283.5092,211.289415 C277.674927,213.478399 273.337611,215.503948 267.428113,219.265354 C258.908331,224.688211 249.98346,232.251713 240.585173,242.53235 C232.539071,251.331795 229.857401,254.176019 225.103758,258.721917 C209.957045,273.206683 194.170653,283.147748 174.335313,288.861831 C158.278692,293.487356 145.449897,294.928546 133.634374,293.600752 C123.285015,292.437722 113.849251,289.304829 100.905579,283.213842 C95.2384013,280.547002 88.8288287,276.194824 81.7432194,270.363616 C76.8984079,266.376506 71.8113341,261.759239 66.4590716,256.550958 C61.1905546,251.42417 56.0699615,246.136475 50.1197278,239.774803 C48.5269852,238.071928 43.5406313,232.701993 43.9916757,233.186582 C41.9568722,231.000446 40.7215062,229.697456 39.7930511,228.769209 C34.6115707,223.587104 30.2257686,217.428547 23.8048085,206.972254 C23.0556064,205.752206 19.1027585,199.247978 17.9581379,197.392051 C14.8592547,192.367418 12.3532903,188.524898 9.77060172,184.924489 C3.78000924,176.57442 0.0882417024,158.562513 0.28449006,140.335256 C0.495460188,120.740661 5.03325422,105.27356 13.3904095,100.130865 C17.998204,97.2953495 21.7345662,93.5247724 25.0359243,88.7555244 C26.7188472,86.3243198 28.079673,83.9921051 29.9792,80.4428228 C32.5665447,75.6083469 32.7874344,75.21161 33.7524139,73.8478514 C33.9698693,73.5406706 39.913814,63.7604028 43.0407795,59.1641716 C49.0054985,50.3968132 55.7213759,42.2025667 63.7362106,34.470341 C69.163795,29.2341372 75.021441,24.3899577 81.3521379,19.9920971 C112.088668,-1.35733042 171.6869,-6.47579113 207.342945,9.37078853 C222.681116,16.1890686 235.587951,26.5064673 247.519071,40.2014974 C252.279028,45.6651722 256.47543,51.1364702 261.748189,58.5166532 C262.53915,59.6237462 266.362879,65.0225359 267.359262,66.4090295 C269.325112,69.1445605 270.813799,71.1259469 272.170145,72.7838759 C275.751418,77.1604608 279.688975,80.2000237 287.322346,85.0483833 Z M270.376065,74.2518509 C268.982907,72.5489282 267.468502,70.5333137 265.476812,67.7618246 C264.474725,66.367393 260.648441,60.9649962 259.862004,59.8642352 C254.628799,52.5394162 250.4734,47.1215775 245.771222,41.7242244 C234.046491,28.266095 221.398881,18.1559146 206.401406,11.4890842 C171.478784,-4.03154106 112.739354,1.0131633 82.6746359,21.8959542 C76.4482248,26.2213687 70.6860367,30.9866061 65.345691,36.1386472 C57.4541082,43.7519669 50.8376281,51.8249357 44.9573966,60.4681085 C41.8798177,64.9917478 35.9207432,74.7969104 35.6445779,75.1870257 C34.7642904,76.4310933 34.536128,76.8408927 32.023024,81.5366491 C30.0852217,85.1574492 28.6863101,87.5549362 26.9419433,90.0749045 C23.4696551,95.0910838 19.5102387,99.0867577 14.605307,102.105123 C7.15169223,106.691812 2.80547345,121.505928 2.60247405,140.360213 C2.41104937,158.139454 6.01216208,175.709062 11.6541706,183.573252 C14.2734979,187.224738 16.8064733,191.108675 19.9311897,196.175195 C21.0807888,198.039194 25.0352103,204.546012 25.7802061,205.759209 C32.1118663,216.070081 36.4142179,222.111456 41.4321657,227.130009 C42.3864912,228.08412 43.634998,229.400971 45.688511,231.607208 C45.2400111,231.125352 50.2233659,236.492058 51.8127172,238.191307 C57.7402204,244.528677 62.8373896,249.792183 68.0757304,254.889607 C73.3849719,260.056024 78.4257512,264.631272 83.2162619,268.573694 C90.1659212,274.293021 96.4270035,278.544372 101.892607,281.116356 C114.626452,287.108603 123.838473,290.167208 133.893248,291.297134 C145.382266,292.588236 157.911768,291.180668 173.693615,286.634299 C193.133807,281.03405 208.607109,271.290144 223.501619,257.04656 C228.204051,252.549635 230.865099,249.727283 238.87433,240.96816 C248.407756,230.539697 257.488605,222.84401 266.18338,217.309769 C272.248939,213.44903 276.722712,211.359755 282.695161,209.118928 C293.731347,204.981419 304.520196,187.836836 306.922798,168.008707 C306.989428,167.458901 307.059275,166.884442 307.139308,166.227713 C309.194409,149.36406 309.773391,143.908205 310.131188,136.158506 C310.605927,125.875909 310.017064,117.619742 308.106319,110.622703 C306.653582,105.30424 304.040467,101.036967 300.169773,97.2342912 C297.153887,94.2714026 294.118821,92.099305 287.86007,88.1333987 C287.193701,87.7113977 287.193701,87.7113977 286.971139,87.5704747 C286.609357,87.3413769 286.342268,87.1720659 286.079491,87.0051626 C278.249514,82.0319279 274.157648,78.8732439 270.376065,74.2518509 Z" id="Stroke-316" fill="#000000" fill-rule="nonzero"></path>
                        <path d="M267.860696,67.4826856 L266.142643,69.0389525 C256.3223,58.1977084 242.774653,51.8027426 227.983239,50.2211608 C214.564595,48.7863634 201.202573,51.5262024 192.055749,57.4063675 C185.275325,61.7655306 179.684079,66.4841253 171.578483,74.2487835 C170.57461,75.210432 167.193609,78.4730412 166.815822,78.8362825 C158.127316,87.1902689 152.762559,91.7233835 146.035838,95.862768 C138.290247,100.629129 130.519916,103.489984 122.299394,104.939749 C116.250389,106.006547 111.644167,106.227335 102.453469,106.219906 C101.917657,106.219473 101.6892,106.219333 101.399407,106.219333 C87.0550464,106.219333 74.4357495,102.517931 64.8212091,94.1032066 C59.8456488,89.7502552 55.7769449,82.2637375 52.8162043,73.0314933 C50.4353009,65.6073096 48.9822804,57.4930972 48.9822804,52.5632435 L51.3003987,52.5632435 C51.3003987,57.2334633 52.7116634,65.1144956 55.02359,72.3235943 C57.867384,81.1911732 61.7510213,88.3371635 66.3477376,92.358677 C75.4861778,100.356714 87.5705442,103.901215 101.399407,103.901215 C101.690039,103.901215 101.918899,103.901355 102.455342,103.901789 C111.516589,103.909113 116.020261,103.693241 121.896785,102.656861 C129.837055,101.256521 137.331516,98.497235 144.820947,93.8885054 C151.370136,89.858368 156.631945,85.4122429 165.209149,77.1652729 C165.584141,76.8047185 168.967337,73.5399912 169.97491,72.5747989 C178.179186,64.7156112 183.869133,59.91372 190.802172,55.4564402 C200.416294,49.2758662 214.307431,46.4275337 228.2297,47.9161815 C243.564662,49.5558826 257.640741,56.2002866 267.860696,67.4826856 Z" id="Stroke-318" fill="#000000" fill-rule="nonzero"></path>
                        <path d="M216.072286,13.2162373 L216.072286,15.5343556 C215.094507,15.5343556 214.304976,15.5248367 212.648656,15.4977536 C210.919804,15.4694845 210.203146,15.4607456 209.276964,15.4614929 C200.3843,15.4686679 193.980868,17.0615801 184.454821,22.6052362 C181.095731,24.5601938 178.338758,27.1761101 174.231972,31.9045989 C174.414125,31.694871 171.704032,34.8373149 170.963188,35.6738299 C167.988924,39.032183 165.755814,41.1138918 163.290766,42.5908892 C160.206222,44.4390736 156.99339,45.0949166 153.429383,44.4263571 C147.553616,43.3251054 144.933674,40.2644261 146.156922,35.5224823 C147.264946,31.2272038 151.592801,25.5035682 159.208545,18.1395942 C165.210739,12.3372339 171.473486,8.61814322 178.057216,6.55459281 C183.056249,4.98773696 187.663867,4.46628323 193.400604,4.46628323 L193.400604,6.78440156 C187.87892,6.78440156 183.489987,7.28110617 178.75053,8.76660274 C172.510851,10.7223168 166.562435,14.2547444 160.819823,19.8061636 C153.493649,26.8901417 149.371418,32.3418376 148.401558,36.1015162 C147.556202,39.3785578 149.175847,41.2706668 153.856596,42.1479449 C159.35323,43.1790392 163.33017,40.796152 169.227801,34.136916 C169.956727,33.313859 172.654572,30.1856158 172.481802,30.3845412 C176.744713,25.4762915 179.650495,22.7191809 183.288829,20.6017056 C193.183266,14.8436659 199.988232,13.1508683 209.275094,13.1433753 C210.219112,13.1426137 210.94423,13.1514557 212.686556,13.1799451 C214.330532,13.2068263 215.111105,13.2162373 216.072286,13.2162373 Z" id="Stroke-320" fill="#000000" fill-rule="nonzero"></path>
                        <path d="M143.713362,0.799210088 L144.514936,2.97433104 C136.661547,5.86845782 132.336194,7.71463684 127.944019,10.2345986 C122.625488,13.2860463 117.899045,17.0864737 112.999851,22.3898118 C110.318731,25.2923095 108.067865,27.9551647 105.756143,30.8942616 C104.804835,32.1037439 101.419447,36.5385033 100.595113,37.5778492 C98.7933359,39.8495845 97.2503585,41.5932144 95.4900004,43.2875704 C95.4262344,43.3489455 95.3622416,43.4101859 95.2979043,43.4714018 C92.5612746,46.0746001 88.329535,47.2056445 84.7612048,46.5507634 C80.8438678,45.8318305 78.7284045,43.0621877 80.2970132,39.5338897 C84.3275441,30.4655688 90.1981865,22.3641522 97.7001237,16.1117549 C98.2650989,15.6408833 98.8426888,15.1787557 99.4320559,14.7253438 C102.715001,12.1997085 106.226608,10.0385034 109.73827,8.23749935 C110.967988,7.60682136 112.110948,7.06573405 113.138539,6.61401478 C113.499932,6.45515002 113.82167,6.31859458 114.100173,6.20432996 C114.270055,6.13463039 114.389501,6.08720522 114.454926,6.06204014 L115.28712,8.22563106 C115.237451,8.24473581 115.133899,8.28585065 114.980075,8.34896162 C114.719068,8.4560479 114.414974,8.5851146 114.071407,8.73614356 C113.084826,9.16983492 111.983424,9.69124879 110.796136,10.3001653 C107.402068,12.0408599 104.007944,14.1297607 100.845541,16.5626608 C100.279805,16.9978928 99.7257635,17.4411791 99.1842566,17.8924913 C91.9684079,23.9064516 86.3074109,31.7185602 82.4152762,40.4755023 C81.5446261,42.4338704 82.5837322,43.7943065 85.179651,44.2707249 C88.0411255,44.7958797 91.5194953,43.8661933 93.700098,41.7919115 C93.7611059,41.7338635 93.8218872,41.6756965 93.8824525,41.617402 C95.5597004,40.0030402 97.0366923,38.3339767 98.778894,36.1373554 C99.5863002,35.1193529 102.967855,30.6896145 103.934096,29.4611463 C106.281868,26.4762164 108.57182,23.7671217 111.29707,20.8168491 C116.353844,15.3429322 121.264683,11.3942368 126.79041,8.22391241 C131.324145,5.62273221 135.746437,3.73517699 143.713362,0.799210088 Z" id="Stroke-322" fill="#000000" fill-rule="nonzero"></path>
                        <path d="M139.185499,233.359505 C140.230531,233.359505 140.741859,234.633681 139.986731,235.356088 C139.954938,235.386504 139.894969,235.443414 139.808204,235.525059 C139.664953,235.659856 139.497671,235.815855 139.307733,235.991297 C138.766521,236.491203 138.151283,237.047677 137.472996,237.646657 C135.535163,239.357915 133.47795,241.06928 131.388054,242.668748 C129.657736,243.99302 127.978165,245.183235 126.373682,246.20654 C122.421665,248.727051 119.105272,250.137134 116.513817,250.137134 C113.922362,250.137134 110.605969,248.727051 106.653951,246.20654 C105.049469,245.183235 103.369898,243.99302 101.63958,242.668748 C99.5496843,241.06928 97.4924711,239.357915 95.5546373,237.646657 C94.8763511,237.047677 94.2611128,236.491203 93.7199006,235.991297 C93.529963,235.815855 93.3626808,235.659856 93.2194299,235.525059 C93.1326644,235.443414 93.0726963,235.386504 93.040903,235.356088 C92.2857744,234.633681 92.7971031,233.359505 93.8421348,233.359505 L139.185499,233.359505 Z M96.8277332,235.677624 C96.9137269,235.754007 97.0008454,235.831166 97.0890627,235.909069 C98.9888835,237.586759 101.005488,239.264342 103.048451,240.827891 C104.729381,242.114364 106.356097,243.267125 107.90046,244.252086 C111.50567,246.551411 114.486966,247.819015 116.513817,247.819015 C118.540668,247.819015 121.521964,246.551411 125.127174,244.252086 C126.671536,243.267125 128.298252,242.114364 129.979183,240.827891 C132.022146,239.264342 134.03875,237.586759 135.938571,235.909069 C136.026788,235.831166 136.113907,235.754007 136.199901,235.677624 L96.8277332,235.677624 Z" id="Stroke-324" fill="#000000" fill-rule="nonzero"></path>
                        <path d="M208.82552,167.780074 C208.666543,168.400149 208.034996,168.773943 207.41492,168.614966 C206.794845,168.455988 206.421051,167.824441 206.580029,167.204366 C206.644204,166.932734 206.677981,166.778935 206.71461,166.601521 C206.820534,166.088468 206.926945,165.492764 207.026556,164.822387 C208.029727,158.071103 207.578889,150.609945 204.630892,143.608718 C203.16803,140.134553 201.134615,136.950116 198.470241,134.113238 C184.172998,118.89116 167.500442,116.542269 151.114911,129.624288 C145.915256,133.775633 142.732745,139.329992 141.258144,145.97478 C139.807903,152.509799 140.093889,159.537855 141.453019,166.260128 C141.703428,167.498656 141.97141,168.619951 142.238799,169.602965 C142.331831,169.944984 142.417914,170.244643 142.494773,170.499321 C142.539925,170.648937 142.571309,170.748376 142.586646,170.795023 C142.786581,171.40313 142.455692,172.058177 141.847586,172.258111 C141.239479,172.458046 140.584433,172.127158 140.384498,171.519052 C140.363315,171.454624 140.326225,171.337104 140.275513,171.169066 C140.192599,170.894322 140.10065,170.574246 140.001954,170.211407 C139.72155,169.180542 139.441739,168.009752 139.180876,166.719516 C137.762943,159.7064 137.46441,152.370016 138.995082,145.472564 C140.578554,138.337186 144.028911,132.315362 149.668575,127.812719 C167.056368,113.930505 185.078825,116.469575 200.159946,132.526237 C203.017392,135.568689 205.199916,138.986639 206.767339,142.709127 C209.904242,150.158986 210.379718,158.02789 209.3195,165.163095 C209.213375,165.877309 209.099355,166.515608 208.984848,167.070232 C208.914938,167.408846 208.859368,167.648054 208.82552,167.780074 Z" id="Stroke-326" fill="#000000" fill-rule="nonzero"></path>
                        <path d="M94.2849922,172.022246 C94.0066525,172.598695 93.3137087,172.840361 92.737259,172.562022 C92.1608092,172.283682 91.9191432,171.590738 92.1974829,171.014288 C92.2170663,170.973731 92.2593129,170.882054 92.3210171,170.741172 C92.4272459,170.498633 92.5465489,170.210667 92.6757258,169.879192 C93.0482384,168.923306 93.4220503,167.816051 93.771661,166.572803 C95.4242325,160.696109 95.9503012,154.137896 94.6740751,147.30463 C92.0518991,133.264777 80.7696463,121.695781 68.6967456,121.695781 C54.8638032,121.695781 44.2086962,129.08852 41.1800872,142.124935 C39.6967389,148.508705 39.4176991,154.80859 40.0919885,160.780785 C40.5847474,165.145161 41.5678008,169.038371 42.6024011,171.587373 C42.8431454,172.180508 42.5574761,172.856501 41.9643408,173.097246 C41.3712056,173.33799 40.6952125,173.052321 40.4544682,172.459186 C39.3398747,169.713099 38.3048363,165.614012 37.7885055,161.040859 C37.0857044,154.816135 37.3764337,148.252335 38.9221131,141.600316 C42.2098963,127.448305 53.8420612,119.377663 68.6967456,119.377663 C82.0005032,119.377663 94.141642,131.827373 96.9527912,146.879042 C98.3002046,154.093465 97.7459512,161.003042 96.0032244,167.200336 C95.6326204,168.518238 95.2347736,169.696686 94.8356276,170.720915 C94.5928432,171.343912 94.4006916,171.782629 94.2849922,172.022246 Z" id="Stroke-328" fill="#000000" fill-rule="nonzero"></path>
                        <path d="M173.928455,174.029323 C163.132416,174.029323 154.380666,163.424066 154.380666,150.342678 C154.380666,137.258148 163.132416,126.652891 173.928455,126.652891 C184.724494,126.652891 193.476244,137.258148 193.476244,150.342678 C193.476244,163.424066 184.724494,174.029323 173.928455,174.029323" id="Fill-330" fill="#000000" fill-rule="evenodd"></path>
                        <path d="M173.928455,172.870263 C184.029761,172.870263 192.317184,162.827997 192.317184,150.342678 C192.317184,137.854685 184.030134,127.81195 173.928455,127.81195 C163.826776,127.81195 155.539725,137.854685 155.539725,150.342678 C155.539725,162.827997 163.827149,172.870263 173.928455,172.870263 Z M173.928455,175.188382 C162.437967,175.188382 153.221607,164.020479 153.221607,150.342678 C153.221607,136.662239 162.437538,125.493832 173.928455,125.493832 C185.419372,125.493832 194.635303,136.662239 194.635303,150.342678 C194.635303,164.020479 185.418943,175.188382 173.928455,175.188382 Z" id="Stroke-332" fill="#000000" fill-rule="nonzero"></path>
                        <path d="M67.1326442,175.383025 C56.8847117,175.383025 48.5773728,165.048006 48.5773728,152.303293 C48.5773728,139.554988 56.8847117,129.219969 67.1326442,129.219969 C77.3805767,129.219969 85.6879156,139.554988 85.6879156,152.303293 C85.6879156,165.048006 77.3805767,175.383025 67.1326442,175.383025" id="Fill-334" fill="#000000" fill-rule="evenodd"></path>
                        <path d="M67.1326442,174.223965 C76.6773897,174.223965 84.5288564,164.457424 84.5288564,152.303293 C84.5288564,140.146106 76.6778029,130.379029 67.1326442,130.379029 C57.5874855,130.379029 49.736432,140.146106 49.736432,152.303293 C49.736432,164.457424 57.5878988,174.223965 67.1326442,174.223965 Z M67.1326442,176.542084 C56.1826597,176.542084 47.4183136,165.639999 47.4183136,152.303293 C47.4183136,138.96357 56.1821801,128.06091 67.1326442,128.06091 C78.0831083,128.06091 86.8469748,138.96357 86.8469748,152.303293 C86.8469748,165.639999 78.0826287,176.542084 67.1326442,176.542084 Z" id="Stroke-336" fill="#000000" fill-rule="nonzero"></path>
                        <path d="M299.514191,108.062249 C300.03512,107.690227 300.759,107.810941 301.131021,108.33187 C301.503043,108.852799 301.382329,109.576679 300.8614,109.948701 C292.754735,115.738074 287.423835,123.419655 284.364252,132.474584 C282.140086,139.057072 281.30393,145.624013 281.30393,152.303203 C281.30393,158.779907 281.621765,163.00867 282.766203,168.045932 C284.276074,174.691655 287.122101,181.3902 291.751173,188.546776 C292.098837,189.084267 291.944952,189.801827 291.407461,190.149492 C290.86997,190.497156 290.152409,190.343271 289.804745,189.80578 C285.029353,182.422992 282.076289,175.47252 280.505691,168.559507 C279.31509,163.319055 278.985811,158.938043 278.985811,152.303203 C278.985811,145.39204 279.852428,138.585869 282.168113,131.732527 C285.376201,122.238095 290.988722,114.150711 299.514191,108.062249 Z" id="Stroke-338" fill="#000000" fill-rule="nonzero"></path>
                        <path d="M60.3454146,154.080442 C63.5038733,154.080442 66.0639486,150.667008 66.0639486,146.45588 C66.0639486,142.244751 63.5038733,138.830868 60.3454146,138.830868 C57.1869559,138.830868 54.6268806,142.244751 54.6268806,146.45588 C54.6268806,150.667008 57.1869559,154.080442 60.3454146,154.080442" id="Fill-448" fill="#FFFFFE" fill-rule="evenodd"></path>
                        <path d="M165.536453,153.164686 C168.830031,153.164686 171.500087,149.604462 171.500087,145.213325 C171.500087,140.821739 168.830031,137.261964 165.536453,137.261964 C162.242876,137.261964 159.57282,140.821739 159.57282,145.213325 C159.57282,149.604462 162.242876,153.164686 165.536453,153.164686" id="Fill-450" fill="#FFFFFE" fill-rule="evenodd"></path>
                    </g>
                </g>
            </g>
        </g>
        <text id="Finder-historien" font-family="Roboto-Bold, Roboto" font-size="67" font-weight="bold" fill="#FFFFFF">
            <tspan x="286.373535" y="204">Finder historien</tspan>
        </text>
        <text id="Den-er-klar-om-lidt" font-family="Roboto-Light, Roboto" font-size="45" font-weight="300" fill="#FFFFFF">
            <tspan x="344.164307" y="262">Den er klar om lidt</tspan>
        </text>
        <rect id="Rectangle-2" stroke="#0B24BE" stroke-width="24" fill-rule="nonzero" x="12" y="12" width="1000" height="748"></rect>
    </g>
</svg>